# xmcd
#
# Track frame offsets:
#	150
#	14043
#	34175
#	49111
#	61579
#	80921
#	91559
#	111378
#	128773
#	148136
#	163675
#
# Disc length: 2383 seconds
# Revision: 0
# Processed by: cddbd v1.5.2PL0 Copyright (c) Steve Scherf et al.
# Submitted via: dBpowerAMP V12.0
#
DISCID=93094d0b
DTITLE=Chris Smither - Hundred Dollar Valentine
DYEAR=2012
DGENRE=Blues
TTITLE0=Hundred Dollar Valentine
TTITLE1=On the Edge
TTITLE2=What It Might Have Been
TTITLE3=What They Say
TTITLE4=All We Need To Know
TTITLE5=Make Room For Me
TTITLE6=I Feel the Same
TTITLE7=Place In Line
TTITLE8=Feeling By Degrees
TTITLE9=Every Mother's Son
TTITLE10=Rosalie
EXTD=
EXTT0=
EXTT1=
EXTT2=
EXTT3=
EXTT4=
EXTT5=
EXTT6=
EXTT7=
EXTT8=
EXTT9=
EXTT10=
PLAYORDER=
